HIERARCHY
ROOT newVegas:Hips
{
	OFFSET 0.000000 96.479958 0.000000
	CHANNELS 6 Xposition Yposition Zposition Xrotation Yrotation Zrotation
	JOINT newVegas:Pelvis
	{
		OFFSET 0.000000 0.000000 0.000000
		CHANNELS 3 Xrotation Yrotation Zrotation
		JOINT newVegas:LeftUpLeg
		{
			OFFSET 18.735201 -5.666702 -4.541200
			CHANNELS 3 Xrotation Yrotation Zrotation
			JOINT newVegas:LeftLeg
			{
				OFFSET -0.021200 -31.938179 0.493100
				CHANNELS 3 Xrotation Yrotation Zrotation
				JOINT newVegas:LeftFoot
				{
					OFFSET 0.021200 -31.938179 -4.336299
					CHANNELS 3 Xrotation Yrotation Zrotation
					JOINT newVegas:LeftToeBase
					{
						OFFSET 0.943001 -26.722000 15.023500
						CHANNELS 3 Xrotation Yrotation Zrotation
						End Site
						{
							OFFSET 0.000000 30.670183 0.000000
						}
					}
				}
				JOINT newVegas:Left_PantLeg
				{
					OFFSET 0.663870 -9.044666 -1.108900
					CHANNELS 3 Xrotation Yrotation Zrotation
					End Site
					{
						OFFSET 1.415995 20.635357 0.000000
					}
				}
			}
		}
		JOINT newVegas:RightUpLeg
		{
			OFFSET -18.735201 -5.666702 -4.541200
			CHANNELS 3 Xrotation Yrotation Zrotation
			JOINT newVegas:RightLeg
			{
				OFFSET 0.018946 -31.938133 0.493100
				CHANNELS 3 Xrotation Yrotation Zrotation
				JOINT newVegas:RightFoot
				{
					OFFSET -0.018946 -31.938126 -4.336299
					CHANNELS 3 Xrotation Yrotation Zrotation
					JOINT newVegas:RightToeBase
					{
						OFFSET -0.943001 -26.722004 15.023500
						CHANNELS 3 Xrotation Yrotation Zrotation
						End Site
						{
							OFFSET 0.000000 30.670187 0.000000
						}
					}
				}
				JOINT newVegas:Right_PantLeg
				{
					OFFSET -0.661674 -9.044716 -1.108900
					CHANNELS 3 Xrotation Yrotation Zrotation
					End Site
					{
						OFFSET -1.415958 20.635269 0.000000
					}
				}
			}
		}
	}
	JOINT newVegas:Spine
	{
		OFFSET 0.000000 10.199997 -0.299500
		CHANNELS 3 Xrotation Yrotation Zrotation
		JOINT newVegas:Spine1
		{
			OFFSET 0.000000 11.900002 -1.516600
			CHANNELS 3 Xrotation Yrotation Zrotation
			JOINT newVegas:Spine2
			{
				OFFSET 0.000000 13.600006 -2.842500
				CHANNELS 3 Xrotation Yrotation Zrotation
				JOINT newVegas:Neck
				{
					OFFSET 0.000000 9.624100 -2.890100
					CHANNELS 3 Xrotation Yrotation Zrotation
					JOINT newVegas:Head
					{
						OFFSET 0.000000 14.068802 -1.351900
						CHANNELS 3 Xrotation Yrotation Zrotation
						JOINT newVegas:Hair_Back
						{
							OFFSET 0.000000 3.231903 -17.524799
							CHANNELS 3 Xrotation Yrotation Zrotation
							End Site
							{
								OFFSET 0.000000 19.849884 0.000000
							}
						}
						JOINT newVegas:Hair_Front
						{
							OFFSET 0.000000 31.260406 4.573800
							CHANNELS 3 Xrotation Yrotation Zrotation
							JOINT newVegas:Hair_Front1
							{
								OFFSET 0.000000 2.284103 11.993300
								CHANNELS 3 Xrotation Yrotation Zrotation
								JOINT newVegas:Hair_Front2
								{
									OFFSET 0.000000 2.284103 11.993300
									CHANNELS 3 Xrotation Yrotation Zrotation
									End Site
									{
										OFFSET 0.000000 12.208862 0.000000
									}
								}
							}
						}
						JOINT newVegas:Jowel
						{
							OFFSET 0.000000 -7.458206 6.864100
							CHANNELS 3 Xrotation Yrotation Zrotation
							End Site
							{
								OFFSET 0.000000 19.849884 0.000000
							}
						}
					}
				}
				JOINT newVegas:LeftShoulder
				{
					OFFSET 15.263000 10.923401 -0.547700
					CHANNELS 3 Xrotation Yrotation Zrotation
					JOINT newVegas:LeftArm
					{
						OFFSET 25.438599 -2.830597 -13.032500
						CHANNELS 3 Xrotation Yrotation Zrotation
						JOINT newVegas:LeftForeArm
						{
							OFFSET 29.960503 0.000000 0.000000
							CHANNELS 3 Xrotation Yrotation Zrotation
							JOINT newVegas:LeftHand
							{
								OFFSET 27.849251 0.000000 0.000000
								CHANNELS 3 Xrotation Yrotation Zrotation
								JOINT newVegas:LeftHandThumb1
								{
									OFFSET 4.487587 -3.305161 6.305391
									CHANNELS 3 Xrotation Yrotation Zrotation
									JOINT newVegas:LeftHandThumb2
									{
										OFFSET 5.480453 -3.164139 3.164143
										CHANNELS 3 Xrotation Yrotation Zrotation
										JOINT newVegas:LeftHandThumb3
										{
											OFFSET 5.159721 -2.978973 2.978967
											CHANNELS 3 Xrotation Yrotation Zrotation
											End Site
											{
												OFFSET 2.494507 5.926697 1.738678
											}
										}
									}
								}
								JOINT newVegas:LeftHandIndex1
								{
									OFFSET 18.578728 -0.527832 5.208049
									CHANNELS 3 Xrotation Yrotation Zrotation
									JOINT newVegas:LeftHandIndex2
									{
										OFFSET 3.192009 0.000000 0.000000
										CHANNELS 3 Xrotation Yrotation Zrotation
										JOINT newVegas:LeftHandIndex3
										{
											OFFSET 3.835129 0.000000 0.000000
											CHANNELS 3 Xrotation Yrotation Zrotation
											End Site
											{
												OFFSET -0.034599 3.816971 0.371180
											}
										}
									}
								}
								JOINT newVegas:LeftHandMiddle1
								{
									OFFSET 18.476105 0.000000 0.000000
									CHANNELS 3 Xrotation Yrotation Zrotation
									JOINT newVegas:LeftHandMiddle2
									{
										OFFSET 3.324875 0.000000 0.000000
										CHANNELS 3 Xrotation Yrotation Zrotation
										JOINT newVegas:LeftHandMiddle3
										{
											OFFSET 4.596550 0.000000 0.000000
											CHANNELS 3 Xrotation Yrotation Zrotation
											End Site
											{
												OFFSET 0.057701 4.578827 0.399218
											}
										}
									}
								}
								JOINT newVegas:LeftHandRing1
								{
									OFFSET 17.732719 0.121887 -4.201567
									CHANNELS 3 Xrotation Yrotation Zrotation
									JOINT newVegas:LeftHandRing2
									{
										OFFSET 2.733170 0.000000 0.000000
										CHANNELS 3 Xrotation Yrotation Zrotation
										JOINT newVegas:LeftHandRing3
										{
											OFFSET 3.178268 0.000000 0.000000
											CHANNELS 3 Xrotation Yrotation Zrotation
											End Site
											{
												OFFSET 0.119102 3.170624 0.185394
											}
										}
									}
								}
								JOINT newVegas:LeftHandPinky1
								{
									OFFSET 15.989624 -0.606689 -7.535461
									CHANNELS 3 Xrotation Yrotation Zrotation
									JOINT newVegas:LeftHandPinky2
									{
										OFFSET 2.538986 0.000000 0.000000
										CHANNELS 3 Xrotation Yrotation Zrotation
										JOINT newVegas:LeftHandPinky3
										{
											OFFSET 2.593102 0.000000 0.000000
											CHANNELS 3 Xrotation Yrotation Zrotation
											End Site
											{
												OFFSET -0.150902 2.584198 0.152708
											}
										}
									}
								}
							}
							JOINT newVegas:Left_Sleeve
							{
								OFFSET 0.267448 -0.649796 0.577675
								CHANNELS 3 Xrotation Yrotation Zrotation
								End Site
								{
									OFFSET 0.000000 15.991241 0.000000
								}
							}
							JOINT newVegas:Left_CapeC
							{
								OFFSET 15.715958 -8.608795 -6.935905
								CHANNELS 3 Xrotation Yrotation Zrotation
								JOINT newVegas:Left_CapeC1
								{
									OFFSET 0.000000 -8.688499 0.000000
									CHANNELS 3 Xrotation Yrotation Zrotation
									End Site
									{
										OFFSET 0.000000 8.688499 0.000000
									}
								}
							}
						}
						JOINT newVegas:Left_CapeB
						{
							OFFSET 26.118385 -8.608795 -7.079235
							CHANNELS 3 Xrotation Yrotation Zrotation
							JOINT newVegas:Left_CapeB1
							{
								OFFSET 0.000000 -8.688499 0.000000
								CHANNELS 3 Xrotation Yrotation Zrotation
								End Site
								{
									OFFSET 0.000000 8.688499 0.000000
								}
							}
						}
						JOINT newVegas:Left_CapeA
						{
							OFFSET 5.115639 -8.608795 -10.395809
							CHANNELS 3 Xrotation Yrotation Zrotation
							JOINT newVegas:Left_CapeA1
							{
								OFFSET 0.000000 -8.688499 0.000000
								CHANNELS 3 Xrotation Yrotation Zrotation
								End Site
								{
									OFFSET 0.000000 8.688499 0.000000
								}
							}
						}
					}
				}
				JOINT newVegas:RightShoulder
				{
					OFFSET -15.263000 10.923401 -0.547700
					CHANNELS 3 Xrotation Yrotation Zrotation
					JOINT newVegas:RightArm
					{
						OFFSET -25.438599 -2.830597 -13.032500
						CHANNELS 3 Xrotation Yrotation Zrotation
						JOINT newVegas:RightForeArm
						{
							OFFSET -29.960503 0.000000 0.000000
							CHANNELS 3 Xrotation Yrotation Zrotation
							JOINT newVegas:RightHand
							{
								OFFSET -27.849251 0.000000 0.000000
								CHANNELS 3 Xrotation Yrotation Zrotation
								JOINT newVegas:RightHandThumb1
								{
									OFFSET -4.487587 -3.305161 6.305391
									CHANNELS 3 Xrotation Yrotation Zrotation
									JOINT newVegas:RightHandThumb2
									{
										OFFSET -5.480453 -3.164139 3.164143
										CHANNELS 3 Xrotation Yrotation Zrotation
										JOINT newVegas:RightHandThumb3
										{
											OFFSET -5.159721 -2.978973 2.978967
											CHANNELS 3 Xrotation Yrotation Zrotation
											End Site
											{
												OFFSET -2.494507 5.926697 1.738678
											}
										}
									}
								}
								JOINT newVegas:RightHandIndex1
								{
									OFFSET -18.578728 -0.527832 5.208049
									CHANNELS 3 Xrotation Yrotation Zrotation
									JOINT newVegas:RightHandIndex2
									{
										OFFSET -3.192009 0.000000 0.000000
										CHANNELS 3 Xrotation Yrotation Zrotation
										JOINT newVegas:RightHandIndex3
										{
											OFFSET -3.835129 0.000000 0.000000
											CHANNELS 3 Xrotation Yrotation Zrotation
											End Site
											{
												OFFSET 0.034599 3.816971 0.371180
											}
										}
									}
								}
								JOINT newVegas:RightHandMiddle1
								{
									OFFSET -18.476105 0.000000 0.000000
									CHANNELS 3 Xrotation Yrotation Zrotation
									JOINT newVegas:RightHandMiddle2
									{
										OFFSET -3.324875 0.000000 0.000000
										CHANNELS 3 Xrotation Yrotation Zrotation
										JOINT newVegas:RightHandMiddle3
										{
											OFFSET -4.596550 0.000000 0.000000
											CHANNELS 3 Xrotation Yrotation Zrotation
											End Site
											{
												OFFSET -0.057701 4.578827 0.399218
											}
										}
									}
								}
								JOINT newVegas:RightHandRing1
								{
									OFFSET -17.732719 0.121887 -4.201567
									CHANNELS 3 Xrotation Yrotation Zrotation
									JOINT newVegas:RightHandRing2
									{
										OFFSET -2.733170 0.000000 0.000000
										CHANNELS 3 Xrotation Yrotation Zrotation
										JOINT newVegas:RightHandRing3
										{
											OFFSET -3.178268 0.000000 0.000000
											CHANNELS 3 Xrotation Yrotation Zrotation
											End Site
											{
												OFFSET -0.119102 3.170624 0.185394
											}
										}
									}
								}
								JOINT newVegas:RightHandPinky1
								{
									OFFSET -15.989624 -0.606689 -7.535461
									CHANNELS 3 Xrotation Yrotation Zrotation
									JOINT newVegas:RightHandPinky2
									{
										OFFSET -2.538986 0.000000 0.000000
										CHANNELS 3 Xrotation Yrotation Zrotation
										JOINT newVegas:RightHandPinky3
										{
											OFFSET -2.593102 0.000000 0.000000
											CHANNELS 3 Xrotation Yrotation Zrotation
											End Site
											{
												OFFSET 0.150902 2.584198 0.152708
											}
										}
									}
								}
							}
							JOINT newVegas:Right_CapeC
							{
								OFFSET -15.715958 -8.608795 -6.935905
								CHANNELS 3 Xrotation Yrotation Zrotation
								JOINT newVegas:Right_CapeC1
								{
									OFFSET 0.000000 -8.688499 0.000000
									CHANNELS 3 Xrotation Yrotation Zrotation
									End Site
									{
										OFFSET 0.000000 8.688499 0.000000
									}
								}
							}
							JOINT newVegas:Right_Sleeve
							{
								OFFSET -0.267448 -0.649994 0.577675
								CHANNELS 3 Xrotation Yrotation Zrotation
								End Site
								{
									OFFSET 0.000000 15.991302 0.000000
								}
							}
						}
						JOINT newVegas:Right_CapeA
						{
							OFFSET -5.115540 -8.608795 -10.395824
							CHANNELS 3 Xrotation Yrotation Zrotation
							JOINT newVegas:Right_CapeA1
							{
								OFFSET 0.000000 -8.688499 0.000000
								CHANNELS 3 Xrotation Yrotation Zrotation
								End Site
								{
									OFFSET 0.000000 8.688499 0.000000
								}
							}
						}
						JOINT newVegas:Right_CapeB
						{
							OFFSET -26.118187 -8.608795 -7.079266
							CHANNELS 3 Xrotation Yrotation Zrotation
							JOINT newVegas:Right_CapeB1
							{
								OFFSET 0.000000 -8.688499 0.000000
								CHANNELS 3 Xrotation Yrotation Zrotation
								End Site
								{
									OFFSET 0.000000 8.688499 0.000000
								}
							}
						}
					}
				}
				JOINT newVegas:Left_Collar
				{
					OFFSET 18.625099 8.655502 8.828100
					CHANNELS 3 Xrotation Yrotation Zrotation
					JOINT newVegas:Left_Collar1
					{
						OFFSET 14.783401 10.540405 -1.259500
						CHANNELS 3 Xrotation Yrotation Zrotation
						End Site
						{
							OFFSET 0.000000 18.199875 0.000000
						}
					}
				}
				JOINT newVegas:Collar_Back
				{
					OFFSET 0.000000 15.630707 -20.132601
					CHANNELS 3 Xrotation Yrotation Zrotation
					End Site
					{
						OFFSET 0.000000 22.523010 0.000000
					}
				}
				JOINT newVegas:Left_Peck
				{
					OFFSET 17.239599 -5.132599 25.482599
					CHANNELS 3 Xrotation Yrotation Zrotation
					End Site
					{
						OFFSET 0.000000 22.523010 0.000000
					}
				}
				JOINT newVegas:Right_Peck
				{
					OFFSET -17.239599 -5.132202 25.482599
					CHANNELS 3 Xrotation Yrotation Zrotation
					End Site
					{
						OFFSET 0.000000 22.523010 0.000000
					}
				}
				JOINT newVegas:Right_Collar
				{
					OFFSET -18.625099 8.655792 8.828100
					CHANNELS 3 Xrotation Yrotation Zrotation
					JOINT newVegas:Right_Collar1
					{
						OFFSET -14.783401 10.539993 -1.259500
						CHANNELS 3 Xrotation Yrotation Zrotation
						End Site
						{
							OFFSET 0.000000 18.199631 0.000000
						}
					}
				}
			}
		}
		JOINT newVegas:Belly
		{
			OFFSET 0.000000 -6.540398 9.014299
			CHANNELS 3 Xrotation Yrotation Zrotation
			End Site
			{
				OFFSET 0.000000 11.566666 0.000000
			}
		}
	}
	JOINT newVegas:ElvisFacialAnim_Joint
	{
		OFFSET 1.000000 -95.330101 -8.825800
		CHANNELS 3 Xrotation Yrotation Zrotation
		End Site
		{
			OFFSET 0.000000 35.315800 0.000000
		}
	}
}
MOTION
Frames: 4
Frame Time: 0.016667
-12.326844 77.965553 6.987987 5.733038 -41.159673 12.499869 -0.000000 0.000003 -0.000000 -57.211396 26.767491 42.605422 42.781180 -29.328265 2.457844 2.389919 2.169506 -19.503743 0.000000 0.000000 -0.000000 0.000001 0.000001 0.000001 -16.285551 -5.608393 -37.011484 58.903285 4.311994 -6.701660 -44.838348 -12.203920 28.218778 -0.000000 0.000002 0.000000 -0.000001 -0.000002 -0.000001 17.917398 -5.965534 2.993435 28.909028 -4.182644 -1.799676 17.801735 -2.616837 -3.497802 0.762470 -0.256367 3.482688 0.762490 -0.256360 3.482682 0.000000 -0.000000 -0.000000 0.762453 -0.256394 3.482691 0.762591 -0.256344 3.482689 0.000003 -0.000000 0.000002 0.000000 -0.000000 -0.000000 2.354296 -30.783096 2.356264 -34.242826 -26.233525 -29.291417 -7.515758 -26.361387 1.290844 6.941812 -20.603903 5.351073 16.254353 -11.504917 21.549249 4.507349 18.475115 -9.635935 -0.000000 -0.000004 0.000000 1.539051 -3.432140 14.456422 -0.180786 -1.247027 -29.044112 -0.000000 0.000000 -0.000001 1.659191 1.542440 -11.529120 0.180731 -1.715847 -25.398299 0.000002 -0.000001 -0.000000 -0.041047 5.351823 -28.839890 -0.820832 -0.913458 -27.616159 0.000001 0.000001 0.000000 0.111651 11.221164 -18.652975 -0.848699 -0.437678 -22.689952 -0.000001 0.000005 -0.000001 -0.000000 -0.000000 0.000002 -0.000000 -0.000000 0.000002 -0.000000 -0.000001 0.000002 0.000000 -0.000001 0.000001 0.000001 -0.000001 -0.000001 0.000000 -0.000001 0.000001 -0.000000 -0.000002 0.000001 -0.512606 12.805418 24.404309 -20.406286 -19.745800 20.483660 -21.211011 81.262865 19.903197 -23.264546 11.560930 8.425353 55.149556 18.649557 -29.698287 -0.442531 -14.180583 7.313150 0.000001 -0.000004 -0.000001 5.673424 7.585010 36.844151 1.050471 3.824517 68.900250 0.000001 0.000002 -0.000005 -0.125701 1.886091 45.000759 -1.168984 3.204682 68.417650 -0.000004 -0.000002 -0.000001 -5.311983 1.216669 58.508787 -0.745225 1.667591 48.011305 0.000002 0.000001 0.000000 -7.756791 -9.376485 47.263973 -0.526031 1.541640 45.600518 0.000003 -0.000002 0.000000 0.000001 -0.000001 0.000001 0.000001 -0.000001 0.000001 0.000001 -0.000001 0.000001 -0.000002 0.000001 -0.000001 -0.000002 0.000002 -0.000001 -0.000002 0.000001 -0.000001 -0.000001 0.000002 -0.000001 -0.000001 0.000000 0.000002 -0.000001 0.000000 0.000002 -0.000001 0.000000 0.000002 -0.000001 0.000000 0.000002 -0.000001 0.000000 0.000002 -0.000001 0.000000 0.000002 -0.000001 0.000000 0.000002 -0.000001 0.000003 -0.000001 -0.000000 0.000003 -0.000000 
-11.915880 78.241631 7.032110 4.197486 -40.619999 11.049996 -0.000000 0.000003 -0.000001 -57.167369 26.729262 42.716054 43.045840 -29.424656 2.484301 2.748408 1.333215 -18.759106 -0.000000 -0.000000 0.000000 0.000000 -0.000000 -0.000001 -14.639382 -6.599451 -36.737928 57.624305 4.110924 -6.639413 -44.089349 -12.232001 28.490126 -0.000000 0.000005 0.000000 -0.000001 -0.000000 -0.000000 17.692300 -5.847145 2.895389 28.357205 -3.983565 -2.018758 17.259820 -2.365353 -3.582338 0.688213 -0.001170 3.695600 0.688214 -0.001172 3.695603 0.000001 0.000001 0.000001 0.688170 -0.001173 3.695598 0.688234 -0.001161 3.695591 0.000001 0.000000 -0.000000 0.000001 0.000001 -0.000001 2.328564 -30.676869 2.585250 -33.628819 -25.347563 -29.746519 -7.805141 -23.996589 1.221979 7.439368 -16.512016 6.913808 16.348019 -10.644466 20.290665 4.173221 18.061324 -9.539052 0.000002 0.000000 -0.000008 -0.027712 -3.469731 16.408554 -0.157411 -1.203761 -27.954899 0.000002 0.000002 -0.000001 1.407626 2.022321 -8.664052 0.274507 -1.534074 -22.087493 -0.000003 0.000002 0.000000 0.329469 4.603392 -25.951961 -0.773372 -0.788263 -24.421526 -0.000001 -0.000001 0.000000 1.291774 9.409269 -14.825721 -0.832747 -0.348426 -20.341063 0.000002 -0.000002 0.000001 -0.000001 0.000000 -0.000001 -0.000001 0.000000 -0.000001 -0.000001 0.000000 -0.000001 -0.000001 -0.000001 -0.000001 -0.000001 -0.000001 -0.000001 -0.000001 -0.000001 -0.000001 -0.000001 -0.000001 -0.000001 -0.608449 13.107898 25.085203 -20.872684 -20.553214 19.260992 -11.667157 82.321340 10.693629 -23.900107 9.732263 8.487056 55.149556 18.649558 -29.698291 -0.442535 -14.180586 7.313149 -0.000001 -0.000003 0.000001 5.673419 7.585011 36.844151 1.050473 3.824518 68.900250 -0.000001 0.000001 -0.000002 -0.125703 1.886090 45.000759 -1.168985 3.204687 68.417650 0.000001 -0.000000 0.000001 -5.311985 1.216661 58.508787 -0.745216 1.667588 48.011298 0.000002 -0.000001 0.000003 -7.756796 -9.376492 47.263973 -0.526023 1.541637 45.600518 -0.000003 -0.000000 0.000001 0.000000 -0.000001 0.000004 -0.000000 -0.000001 0.000005 -0.000000 -0.000000 0.000004 -0.000000 0.000001 -0.000000 -0.000000 0.000002 -0.000000 -0.000000 0.000001 -0.000000 -0.000000 0.000002 -0.000000 0.000001 0.000000 -0.000000 0.000001 0.000000 -0.000000 0.000001 0.000000 -0.000000 0.000001 0.000000 -0.000000 0.000001 0.000000 -0.000000 0.000001 0.000000 -0.000000 0.000001 0.000000 -0.000000 -0.000000 -0.000001 -0.000000 -0.000000 0.000003 -0.000001 
-11.523456 78.464417 7.102153 2.977798 -39.889626 9.787460 0.000000 0.000002 0.000000 -57.453680 26.595061 42.814897 43.408489 -29.538212 2.518069 3.125302 0.449172 -17.978627 -0.000000 0.000000 -0.000000 0.000001 -0.000000 -0.000002 -13.021653 -7.582774 -36.291657 56.300775 3.798457 -6.579600 -43.378996 -12.418966 28.767521 0.000000 0.000000 0.000000 0.000001 -0.000002 -0.000003 17.488810 -5.649355 2.942383 27.805750 -3.750687 -1.987563 16.722207 -2.190752 -3.347003 0.496633 0.164457 3.672379 0.496621 0.164463 3.672376 0.000001 0.000000 -0.000001 0.496627 0.164461 3.672381 0.496644 0.164476 3.672375 0.000001 -0.000000 -0.000000 0.000001 0.000000 -0.000003 2.243013 -30.396224 2.625586 -33.029179 -24.760054 -30.398136 -7.945678 -22.391723 0.965508 6.968092 -14.661027 7.619776 16.520308 -10.013510 19.194245 3.726985 17.497754 -9.405211 0.000000 0.000001 -0.000003 -1.121918 -3.629181 17.132787 -0.125502 -1.141307 -26.402313 -0.000000 0.000001 -0.000002 1.251173 2.428153 -6.762185 0.341895 -1.385024 -19.439909 0.000002 -0.000001 0.000001 0.442707 4.444535 -23.821673 -0.734562 -0.666220 -21.365054 0.000001 -0.000001 0.000001 2.196506 8.467070 -11.623432 -0.821267 -0.265654 -18.176551 0.000002 0.000002 -0.000000 0.000000 0.000001 -0.000000 0.000000 0.000001 -0.000000 0.000000 0.000001 -0.000000 0.000000 -0.000001 -0.000000 0.000000 0.000000 -0.000001 0.000000 -0.000001 -0.000000 -0.000000 -0.000001 -0.000000 -0.501969 12.543237 24.284796 -20.300885 -21.057209 19.750057 -3.535478 83.023934 2.884377 -24.115004 8.786028 8.308327 55.149556 18.649555 -29.698287 -0.442529 -14.180581 7.313150 0.000000 -0.000002 0.000003 5.673418 7.585009 36.844151 1.050472 3.824516 68.900257 -0.000004 0.000000 -0.000001 -0.125704 1.886090 45.000756 -1.168985 3.204685 68.417650 0.000001 -0.000001 0.000001 -5.311986 1.216661 58.508787 -0.745218 1.667589 48.011302 0.000000 0.000001 0.000001 -7.756797 -9.376487 47.263973 -0.526031 1.541637 45.600515 0.000001 0.000002 0.000000 -0.000000 -0.000000 -0.000002 -0.000001 -0.000000 -0.000000 -0.000000 0.000000 -0.000002 0.000002 -0.000001 -0.000001 0.000002 0.000000 -0.000001 0.000002 -0.000001 -0.000001 0.000002 -0.000000 -0.000001 0.000001 -0.000000 0.000001 0.000001 -0.000000 0.000001 0.000001 -0.000000 0.000001 0.000001 -0.000000 0.000001 0.000001 -0.000000 0.000001 0.000001 -0.000000 0.000001 0.000001 -0.000000 0.000001 -0.000000 -0.000000 -0.000001 0.000000 0.000002 0.000000 
-11.126951 78.672165 7.179319 1.905217 -39.045589 8.667355 -0.000000 0.000001 -0.000000 -57.817312 26.494364 42.820020 43.714969 -29.643059 2.547912 3.566381 -0.467565 -17.175113 -0.000000 0.000000 0.000000 -0.000001 -0.000000 -0.000000 -11.402581 -8.557519 -35.809162 54.940310 3.439005 -6.517362 -42.666693 -12.679639 29.055133 -0.000000 -0.000000 -0.000000 0.000000 0.000000 0.000001 17.256119 -5.455482 2.968000 27.212093 -3.554406 -1.949091 16.129910 -2.065770 -3.134687 0.291798 0.305442 3.548366 0.291785 0.305446 3.548367 0.000001 0.000000 0.000000 0.291829 0.305435 3.548358 0.291778 0.305447 3.548381 -0.000001 -0.000002 0.000002 0.000001 0.000000 -0.000001 2.180196 -30.084682 2.687265 -32.508938 -24.092750 -31.048158 -8.013981 -21.085991 0.699045 6.449167 -13.147122 7.884983 16.823169 -9.647901 18.086865 3.015991 16.587736 -9.197011 0.000003 -0.000005 -0.000002 -1.666526 -3.856562 16.343922 -0.080194 -1.044517 -24.034992 0.000000 0.000000 -0.000000 1.220577 2.798728 -5.837799 0.392849 -1.258205 -17.228406 0.000001 0.000003 -0.000001 0.086352 5.042140 -22.266475 -0.697791 -0.522235 -17.818263 -0.000001 0.000001 0.000001 2.680542 8.471313 -8.438547 -0.812050 -0.171836 -15.734270 0.000000 0.000004 -0.000001 0.000000 0.000000 -0.000001 0.000000 0.000000 -0.000001 0.000000 0.000000 -0.000001 0.000000 0.000000 -0.000001 0.000001 0.000000 -0.000001 0.000000 0.000000 -0.000001 0.000000 0.000000 -0.000001 -0.531466 12.423656 23.593295 -19.558385 -22.044751 20.084137 3.473111 83.560254 -3.939765 -24.470169 8.375680 8.315511 55.149556 18.649557 -29.698287 -0.442529 -14.180588 7.313152 0.000000 -0.000006 -0.000001 5.673423 7.585006 36.844151 1.050472 3.824518 68.900250 -0.000000 0.000001 -0.000001 -0.125702 1.886091 45.000756 -1.168983 3.204687 68.417650 -0.000001 -0.000002 -0.000001 -5.311982 1.216661 58.508787 -0.745221 1.667588 48.011298 -0.000003 -0.000001 0.000002 -7.756795 -9.376489 47.263977 -0.526026 1.541637 45.600515 -0.000000 -0.000005 0.000001 0.000001 -0.000001 0.000003 -0.000000 0.000000 0.000003 -0.000000 0.000000 0.000004 -0.000003 -0.000001 -0.000001 -0.000003 0.000000 -0.000000 -0.000003 -0.000001 -0.000001 -0.000003 -0.000000 -0.000000 -0.000002 0.000000 0.000001 -0.000002 0.000000 0.000001 -0.000002 0.000000 0.000001 -0.000002 0.000000 0.000001 -0.000002 0.000000 0.000001 -0.000002 0.000000 0.000001 -0.000002 0.000000 0.000001 0.000002 -0.000001 0.000001 -0.000000 0.000001 -0.000000 
